<?xml version="1.0" encoding="UTF-8" standalone="no"?>
<!DOCTYPE svg PUBLIC "-//W3C//DTD SVG 1.1//EN" "http://www.w3.org/Graphics/SVG/1.1/DTD/svg11.dtd">
<svg width="100%" height="100%" viewBox="0 0 178 62" version="1.1" xmlns="http://www.w3.org/2000/svg" xmlns:xlink="http://www.w3.org/1999/xlink" xml:space="preserve" xmlns:serif="http://www.serif.com/" style="fill-rule:evenodd;clip-rule:evenodd;stroke-linejoin:round;stroke-miterlimit:2;">
    <g transform="matrix(1,0,0,1,-5.27208,32.8152)">
        <g transform="matrix(46,0,0,46,3.37292,14.9748)">
            <path d="M0.112,0.071C0.103,0.071 0.096,0.065 0.092,0.053C0.087,0.041 0.082,0.015 0.079,-0.025C0.076,-0.065 0.074,-0.119 0.073,-0.187C0.072,-0.254 0.071,-0.348 0.071,-0.467C0.071,-0.672 0.075,-0.779 0.083,-0.789C0.092,-0.802 0.105,-0.808 0.12,-0.808C0.129,-0.808 0.137,-0.799 0.146,-0.782C0.154,-0.765 0.165,-0.733 0.178,-0.687C0.198,-0.614 0.221,-0.549 0.248,-0.491C0.274,-0.432 0.293,-0.403 0.304,-0.403C0.315,-0.403 0.339,-0.434 0.376,-0.497C0.413,-0.559 0.455,-0.64 0.502,-0.741C0.511,-0.76 0.522,-0.775 0.536,-0.786C0.55,-0.797 0.564,-0.803 0.577,-0.803C0.586,-0.803 0.594,-0.8 0.599,-0.795C0.614,-0.782 0.623,-0.752 0.628,-0.706C0.633,-0.659 0.636,-0.562 0.637,-0.413C0.638,-0.323 0.64,-0.25 0.643,-0.193C0.646,-0.136 0.65,-0.1 0.654,-0.086C0.657,-0.071 0.66,-0.058 0.663,-0.048C0.666,-0.038 0.667,-0.028 0.667,-0.019C0.667,0.002 0.658,0.012 0.639,0.012C0.628,0.012 0.618,0.009 0.608,0.002C0.598,-0.005 0.591,-0.013 0.587,-0.024C0.583,-0.035 0.579,-0.094 0.575,-0.201C0.571,-0.308 0.567,-0.412 0.563,-0.513C0.559,-0.614 0.555,-0.664 0.55,-0.664C0.544,-0.664 0.531,-0.642 0.511,-0.597C0.487,-0.542 0.456,-0.482 0.418,-0.416C0.404,-0.391 0.383,-0.369 0.355,-0.35C0.326,-0.33 0.301,-0.32 0.28,-0.32C0.275,-0.32 0.265,-0.329 0.251,-0.346C0.237,-0.363 0.223,-0.383 0.209,-0.407L0.158,-0.494L0.158,-0.236C0.157,-0.109 0.154,-0.027 0.149,0.013C0.143,0.052 0.131,0.071 0.112,0.071Z" style="fill:rgb(255,122,26);fill-rule:nonzero;stroke:rgb(255,121,27);stroke-width:0.02px;"/>
        </g>
        <g transform="matrix(46,0,0,46,36.8149,14.9748)">
            <path d="M0.153,-0.449C0.205,-0.498 0.249,-0.53 0.285,-0.546C0.32,-0.561 0.365,-0.569 0.42,-0.569C0.503,-0.569 0.554,-0.544 0.575,-0.495C0.588,-0.466 0.594,-0.43 0.594,-0.387C0.594,-0.316 0.578,-0.245 0.547,-0.173C0.516,-0.1 0.477,-0.05 0.431,-0.022C0.386,0.005 0.339,0.019 0.29,0.019C0.221,0.019 0.166,-0.005 0.125,-0.052C0.096,-0.085 0.078,-0.114 0.069,-0.137C0.06,-0.16 0.056,-0.192 0.056,-0.235C0.056,-0.316 0.088,-0.387 0.153,-0.449ZM0.314,-0.038C0.37,-0.038 0.421,-0.077 0.467,-0.154C0.512,-0.231 0.535,-0.318 0.535,-0.415C0.535,-0.43 0.533,-0.441 0.53,-0.448C0.527,-0.455 0.521,-0.463 0.512,-0.47C0.487,-0.491 0.461,-0.501 0.433,-0.501C0.428,-0.501 0.423,-0.501 0.418,-0.5C0.412,-0.499 0.403,-0.497 0.39,-0.496C0.377,-0.494 0.362,-0.492 0.345,-0.49C0.322,-0.487 0.303,-0.482 0.29,-0.475C0.276,-0.468 0.259,-0.454 0.238,-0.435C0.199,-0.398 0.171,-0.363 0.154,-0.332C0.137,-0.3 0.129,-0.265 0.129,-0.228C0.129,-0.173 0.146,-0.127 0.181,-0.092C0.215,-0.057 0.259,-0.039 0.314,-0.038Z" style="fill:rgb(255,122,26);fill-rule:nonzero;stroke:rgb(255,121,27);stroke-width:0.02px;"/>
        </g>
        <g transform="matrix(46,0,0,46,66.7609,14.9748)">
            <path d="M0.175,-0.188C0.175,-0.175 0.17,-0.163 0.16,-0.153C0.15,-0.142 0.145,-0.134 0.145,-0.127C0.145,-0.12 0.147,-0.111 0.152,-0.101C0.159,-0.086 0.167,-0.077 0.178,-0.074C0.188,-0.071 0.213,-0.069 0.254,-0.069C0.289,-0.069 0.315,-0.071 0.332,-0.075C0.349,-0.079 0.366,-0.087 0.382,-0.099C0.408,-0.118 0.424,-0.133 0.431,-0.144C0.437,-0.155 0.44,-0.173 0.44,-0.2C0.44,-0.22 0.436,-0.234 0.429,-0.243C0.422,-0.251 0.402,-0.262 0.37,-0.277C0.324,-0.298 0.294,-0.309 0.281,-0.309C0.252,-0.309 0.209,-0.334 0.15,-0.384C0.09,-0.434 0.061,-0.471 0.061,-0.496C0.061,-0.531 0.079,-0.572 0.115,-0.618C0.151,-0.663 0.191,-0.697 0.236,-0.718C0.259,-0.729 0.302,-0.735 0.365,-0.735C0.393,-0.735 0.414,-0.733 0.428,-0.729C0.442,-0.725 0.457,-0.716 0.473,-0.703C0.484,-0.694 0.494,-0.683 0.503,-0.671C0.512,-0.658 0.516,-0.649 0.516,-0.642C0.516,-0.626 0.513,-0.618 0.508,-0.618C0.503,-0.618 0.496,-0.621 0.487,-0.628C0.478,-0.635 0.469,-0.642 0.46,-0.65C0.451,-0.657 0.437,-0.664 0.42,-0.671C0.403,-0.678 0.384,-0.681 0.363,-0.681C0.307,-0.681 0.256,-0.661 0.21,-0.62C0.163,-0.579 0.14,-0.535 0.14,-0.488C0.14,-0.449 0.209,-0.408 0.346,-0.364C0.454,-0.33 0.508,-0.277 0.508,-0.205C0.508,-0.19 0.505,-0.173 0.5,-0.154C0.485,-0.102 0.459,-0.066 0.422,-0.046C0.385,-0.026 0.321,-0.013 0.23,-0.007L0.14,-0.001L0.113,-0.057C0.099,-0.084 0.092,-0.112 0.092,-0.139C0.092,-0.162 0.097,-0.18 0.108,-0.194C0.119,-0.208 0.134,-0.215 0.153,-0.215C0.168,-0.215 0.175,-0.206 0.175,-0.188Z" style="fill:rgb(255,122,26);fill-rule:nonzero;stroke:rgb(255,121,27);stroke-width:0.02px;"/>
        </g>
        <g transform="matrix(46,0,0,46,93.3949,14.9748)">
            <path d="M0.234,-0.695C0.234,-0.72 0.232,-0.751 0.227,-0.789C0.222,-0.827 0.22,-0.859 0.22,-0.884C0.22,-0.897 0.22,-0.905 0.221,-0.909C0.223,-0.92 0.227,-0.928 0.233,-0.935C0.238,-0.941 0.244,-0.944 0.25,-0.944C0.258,-0.944 0.264,-0.94 0.267,-0.933C0.269,-0.928 0.272,-0.904 0.276,-0.859C0.28,-0.814 0.284,-0.771 0.287,-0.728C0.29,-0.685 0.293,-0.663 0.294,-0.662C0.295,-0.661 0.296,-0.661 0.297,-0.661C0.302,-0.661 0.318,-0.664 0.344,-0.67C0.369,-0.675 0.39,-0.678 0.407,-0.678C0.44,-0.678 0.457,-0.671 0.457,-0.656C0.457,-0.641 0.42,-0.625 0.347,-0.607L0.297,-0.595L0.303,-0.426C0.306,-0.327 0.313,-0.234 0.322,-0.148C0.331,-0.061 0.336,-0.012 0.336,-0.001C0.336,0.02 0.328,0.03 0.313,0.03C0.301,0.03 0.291,0.019 0.284,-0.002C0.276,-0.023 0.272,-0.051 0.272,-0.085C0.272,-0.11 0.271,-0.135 0.269,-0.161C0.267,-0.186 0.264,-0.226 0.259,-0.281C0.254,-0.335 0.249,-0.391 0.244,-0.448C0.242,-0.479 0.241,-0.502 0.24,-0.519C0.239,-0.536 0.237,-0.548 0.236,-0.556C0.235,-0.564 0.234,-0.569 0.233,-0.571C0.232,-0.572 0.231,-0.573 0.229,-0.573C0.218,-0.573 0.193,-0.569 0.152,-0.562C0.111,-0.555 0.086,-0.551 0.076,-0.551C0.057,-0.551 0.047,-0.559 0.047,-0.575C0.047,-0.586 0.059,-0.596 0.084,-0.604C0.108,-0.612 0.135,-0.619 0.166,-0.626C0.197,-0.632 0.216,-0.637 0.223,-0.642C0.23,-0.647 0.234,-0.665 0.234,-0.695Z" style="fill:rgb(255,122,26);fill-rule:nonzero;stroke:rgb(255,121,27);stroke-width:0.02px;"/>
        </g>
        <g transform="matrix(46,0,0,46,117.269,14.9748)">
            <path d="M0.128,-0.288C0.128,-0.236 0.13,-0.198 0.135,-0.173C0.14,-0.148 0.149,-0.135 0.162,-0.135C0.175,-0.135 0.196,-0.151 0.225,-0.182C0.254,-0.213 0.274,-0.243 0.286,-0.27C0.301,-0.303 0.314,-0.343 0.323,-0.391C0.332,-0.438 0.341,-0.473 0.348,-0.498C0.355,-0.523 0.366,-0.535 0.381,-0.535C0.388,-0.535 0.395,-0.532 0.401,-0.526C0.407,-0.52 0.41,-0.512 0.41,-0.503C0.41,-0.492 0.403,-0.457 0.388,-0.398C0.373,-0.339 0.365,-0.276 0.365,-0.211C0.365,-0.189 0.366,-0.169 0.368,-0.15L0.375,-0.121L0.407,-0.137C0.424,-0.144 0.437,-0.148 0.446,-0.148C0.463,-0.148 0.472,-0.142 0.472,-0.129C0.472,-0.113 0.458,-0.098 0.43,-0.083L0.389,-0.062L0.394,0.05C0.39,0.168 0.386,0.23 0.381,0.237C0.376,0.245 0.368,0.249 0.356,0.249C0.342,0.249 0.321,0.243 0.293,0.231C0.277,0.224 0.265,0.216 0.256,0.207C0.247,0.198 0.238,0.186 0.23,0.169C0.211,0.131 0.202,0.097 0.202,0.067C0.202,0.056 0.203,0.048 0.205,0.043C0.207,0.037 0.212,0.028 0.22,0.016C0.228,0.003 0.235,-0.009 0.242,-0.021C0.248,-0.032 0.258,-0.042 0.272,-0.05C0.285,-0.057 0.294,-0.063 0.297,-0.067C0.302,-0.072 0.308,-0.077 0.313,-0.08C0.318,-0.083 0.321,-0.086 0.322,-0.087C0.323,-0.088 0.324,-0.091 0.324,-0.094C0.324,-0.102 0.322,-0.117 0.318,-0.14C0.314,-0.162 0.309,-0.173 0.303,-0.173C0.299,-0.173 0.29,-0.165 0.276,-0.149C0.262,-0.132 0.244,-0.116 0.223,-0.1C0.202,-0.083 0.18,-0.075 0.159,-0.075C0.132,-0.075 0.11,-0.091 0.093,-0.122C0.084,-0.138 0.079,-0.156 0.077,-0.177C0.074,-0.198 0.073,-0.241 0.073,-0.308C0.074,-0.383 0.077,-0.435 0.082,-0.463C0.087,-0.49 0.096,-0.504 0.11,-0.504C0.118,-0.504 0.123,-0.5 0.126,-0.491C0.129,-0.482 0.13,-0.461 0.13,-0.429C0.13,-0.416 0.13,-0.395 0.129,-0.364C0.128,-0.333 0.128,-0.308 0.128,-0.288ZM0.26,0.109C0.26,0.121 0.269,0.137 0.288,0.157C0.306,0.176 0.32,0.186 0.329,0.186C0.339,0.186 0.344,0.163 0.344,0.116C0.343,0.103 0.341,0.088 0.338,0.069C0.334,0.05 0.332,0.037 0.331,0.03L0.325,-0.03L0.297,0.013C0.272,0.052 0.26,0.084 0.26,0.109Z" style="fill:rgb(255,122,26);fill-rule:nonzero;stroke:rgb(255,121,27);stroke-width:0.02px;"/>
        </g>
        <g transform="matrix(46,0,0,46,141.465,14.9748)">
            <path d="M0.103,-0.658C0.099,-0.701 0.097,-0.748 0.097,-0.799C0.097,-0.85 0.098,-0.889 0.101,-0.917C0.104,-0.944 0.107,-0.961 0.111,-0.968C0.115,-0.975 0.121,-0.979 0.128,-0.979C0.135,-0.979 0.14,-0.976 0.144,-0.97C0.148,-0.963 0.16,-0.809 0.181,-0.507C0.201,-0.205 0.211,-0.048 0.211,-0.036C0.211,-0.027 0.209,-0.022 0.205,-0.019C0.201,-0.016 0.194,-0.014 0.185,-0.014C0.169,-0.014 0.159,-0.025 0.154,-0.049C0.149,-0.072 0.143,-0.144 0.134,-0.265C0.123,-0.412 0.113,-0.543 0.103,-0.658Z" style="fill:rgb(255,122,26);fill-rule:nonzero;stroke:rgb(255,121,27);stroke-width:0.02px;"/>
        </g>
        <g transform="matrix(46,0,0,46,155.219,14.9748)">
            <path d="M0.568,-0.215C0.571,-0.215 0.573,-0.212 0.573,-0.207C0.573,-0.195 0.564,-0.176 0.547,-0.149C0.529,-0.122 0.51,-0.1 0.49,-0.083C0.42,-0.021 0.35,0.01 0.28,0.01C0.253,0.01 0.227,0.004 0.201,-0.009C0.174,-0.021 0.15,-0.038 0.127,-0.061C0.104,-0.084 0.086,-0.114 0.072,-0.152C0.058,-0.19 0.051,-0.232 0.051,-0.279C0.051,-0.308 0.054,-0.332 0.061,-0.352C0.074,-0.393 0.103,-0.436 0.147,-0.481C0.19,-0.526 0.231,-0.549 0.27,-0.549C0.281,-0.549 0.297,-0.548 0.318,-0.546C0.35,-0.543 0.373,-0.54 0.386,-0.536C0.399,-0.532 0.413,-0.524 0.43,-0.511C0.451,-0.495 0.47,-0.474 0.486,-0.45C0.501,-0.425 0.509,-0.404 0.509,-0.387C0.509,-0.366 0.501,-0.349 0.484,-0.339C0.467,-0.328 0.435,-0.317 0.387,-0.306C0.325,-0.292 0.264,-0.283 0.203,-0.28L0.11,-0.275L0.11,-0.235C0.11,-0.186 0.133,-0.139 0.179,-0.095C0.214,-0.062 0.25,-0.045 0.287,-0.045C0.316,-0.045 0.346,-0.054 0.379,-0.072C0.411,-0.089 0.438,-0.109 0.461,-0.13C0.484,-0.151 0.505,-0.171 0.526,-0.189C0.547,-0.206 0.561,-0.215 0.568,-0.215ZM0.407,-0.459C0.386,-0.478 0.371,-0.49 0.361,-0.495C0.35,-0.5 0.337,-0.502 0.32,-0.502C0.287,-0.502 0.262,-0.499 0.246,-0.493C0.229,-0.486 0.213,-0.473 0.196,-0.454C0.145,-0.396 0.12,-0.357 0.12,-0.338C0.12,-0.329 0.128,-0.325 0.144,-0.325C0.205,-0.325 0.291,-0.338 0.402,-0.363C0.435,-0.371 0.452,-0.385 0.452,-0.405C0.452,-0.414 0.437,-0.432 0.407,-0.459Z" style="fill:rgb(255,122,26);fill-rule:nonzero;stroke:rgb(255,121,27);stroke-width:0.02px;"/>
        </g>
    </g>
</svg>
